<?xml version="1.0" ?>
<!-- Uploaded to: SVG Repo, www.svgrepo.com, Generator: SVG Repo Mixer Tools -->
<svg fill="#000000" width="800px" height="800px" viewBox="0 0 64 64" xmlns="http://www.w3.org/2000/svg">
<title/>
<g id="Outline">
<path d="M57.94,15.09,46.31,8.58h0l-.14-.08s0,0-.07,0l-.16-.07L37.44,6h0a1.06,1.06,0,0,0-.31,0h-.14a1,1,0,0,0-.37.17h0a7.44,7.44,0,0,1-9.12,0h0A1,1,0,0,0,27.06,6h-.14a1.08,1.08,0,0,0-.31,0h-.05L18.07,8.4h0a.85.85,0,0,0-.22.09L6.06,15.09a1,1,0,0,0-.39,1.35l5.19,9.44a1,1,0,0,0,1,.51L16.66,26c-.78,6.1-1.16,26.13-1.21,28.6a1,1,0,0,0,.79,1L27.09,58a1,1,0,0,0,1.13-.58L32,48.71l3.78,8.69a1,1,0,0,0,.92.6l.21,0,10.85-2.36a1,1,0,0,0,.79-1c0-2.47-.43-22.5-1.21-28.6l4.85.37a1,1,0,0,0,1-.51l5.19-9.44A1,1,0,0,0,57.94,15.09ZM36.41,8.65c.13,1.43.11,3.63-1,5A4.06,4.06,0,0,1,32,15.05a4.06,4.06,0,0,1-3.41-1.37c-1.11-1.4-1.13-3.6-1-5A9.43,9.43,0,0,0,36.41,8.65ZM12.3,24.35l-4.4-8,10.16-5.69c3.85,5.65.29,11.77-.74,13.3Zm25,31.5L32.92,45.8a1,1,0,0,0-1.84,0L26.71,55.85l-9.24-2c.15-7.72.63-25.52,1.33-28.49a18.37,18.37,0,0,0,2.44-5.22A12.32,12.32,0,0,0,20,9.94l5.63-1.56c-.17,1.75-.15,4.57,1.41,6.53A5.62,5.62,0,0,0,31,17v9.48H28.74a1,1,0,1,0,0,2H32a1,1,0,0,0,1-1V17a5.62,5.62,0,0,0,4-2.08c1.56-2,1.58-4.78,1.41-6.53L44.05,10a12.29,12.29,0,0,0-1.26,10.18,17.82,17.82,0,0,0,2.4,5.15c.71,2.78,1.19,20.78,1.34,28.56ZM51.7,24.35l-5-.38c-1-1.53-4.54-7.7-.75-13.3L56.1,16.35Z"/>
<path d="M35.19,18.89a.87.87,0,1,0,.87.86A.87.87,0,0,0,35.19,18.89Z"/>
<path d="M35.19,23.46a.87.87,0,1,0,.87.86A.86.86,0,0,0,35.19,23.46Z"/>
</g>
</svg>