<svg xmlns="http://www.w3.org/2000/svg" xmlns:xlink="http://www.w3.org/1999/xlink" width="500" zoomAndPan="magnify" viewBox="0 0 375 374.999991" height="500" preserveAspectRatio="xMidYMid meet" version="1.0"><defs><g/><clipPath id="1649f61dce"><path d="M 96.113281 71 L 264.113281 71 L 264.113281 239.828125 L 96.113281 239.828125 Z M 96.113281 71 " clip-rule="nonzero"/></clipPath><clipPath id="0ba6c6ec44"><path d="M 96.113281 14.828125 L 149 14.828125 L 149 161 L 96.113281 161 Z M 96.113281 14.828125 " clip-rule="nonzero"/></clipPath></defs><rect x="-37.5" width="450" fill="#ffffff" y="-37.499999" height="449.999989" fill-opacity="1"/><rect x="-37.5" width="450" fill="#ffffff" y="-37.499999" height="449.999989" fill-opacity="1"/><g fill="#273661" fill-opacity="1"><g transform="translate(111.025302, 271.926822)"><g><path d="M 16.875 -12.46875 C 18.28125 -12.175781 19.410156 -11.476562 20.265625 -10.375 C 21.128906 -9.28125 21.5625 -8.03125 21.5625 -6.625 C 21.5625 -4.582031 20.847656 -2.96875 19.421875 -1.78125 C 18.003906 -0.59375 16.023438 0 13.484375 0 L 2.15625 0 L 2.15625 -24.328125 L 13.09375 -24.328125 C 15.570312 -24.328125 17.507812 -23.757812 18.90625 -22.625 C 20.300781 -21.5 21 -19.960938 21 -18.015625 C 21 -16.585938 20.625 -15.398438 19.875 -14.453125 C 19.125 -13.503906 18.125 -12.84375 16.875 -12.46875 Z M 8.078125 -14.484375 L 11.953125 -14.484375 C 12.921875 -14.484375 13.664062 -14.695312 14.1875 -15.125 C 14.707031 -15.550781 14.96875 -16.179688 14.96875 -17.015625 C 14.96875 -17.847656 14.707031 -18.484375 14.1875 -18.921875 C 13.664062 -19.359375 12.921875 -19.578125 11.953125 -19.578125 L 8.078125 -19.578125 Z M 12.4375 -4.78125 C 13.4375 -4.78125 14.207031 -5.003906 14.75 -5.453125 C 15.289062 -5.910156 15.5625 -6.566406 15.5625 -7.421875 C 15.5625 -8.273438 15.273438 -8.941406 14.703125 -9.421875 C 14.140625 -9.910156 13.363281 -10.15625 12.375 -10.15625 L 8.078125 -10.15625 L 8.078125 -4.78125 Z M 12.4375 -4.78125 "/></g></g></g><g fill="#273661" fill-opacity="1"><g transform="translate(133.861196, 271.926822)"><g><path d="M 17.296875 -4.296875 L 8.21875 -4.296875 L 6.765625 0 L 0.546875 0 L 9.359375 -24.328125 L 16.21875 -24.328125 L 25.015625 0 L 18.75 0 Z M 15.765625 -8.875 L 12.75 -17.78125 L 9.765625 -8.875 Z M 15.765625 -8.875 "/></g></g></g><g fill="#273661" fill-opacity="1"><g transform="translate(159.399978, 271.926822)"><g><path d="M 29.703125 -24.328125 L 29.703125 0 L 23.78125 0 L 23.78125 -14.59375 L 18.328125 0 L 13.546875 0 L 8.078125 -14.625 L 8.078125 0 L 2.15625 0 L 2.15625 -24.328125 L 9.15625 -24.328125 L 15.96875 -7.484375 L 22.734375 -24.328125 Z M 29.703125 -24.328125 "/></g></g></g><g fill="#273661" fill-opacity="1"><g transform="translate(191.210832, 271.926822)"><g><path d="M 16.875 -12.46875 C 18.28125 -12.175781 19.410156 -11.476562 20.265625 -10.375 C 21.128906 -9.28125 21.5625 -8.03125 21.5625 -6.625 C 21.5625 -4.582031 20.847656 -2.96875 19.421875 -1.78125 C 18.003906 -0.59375 16.023438 0 13.484375 0 L 2.15625 0 L 2.15625 -24.328125 L 13.09375 -24.328125 C 15.570312 -24.328125 17.507812 -23.757812 18.90625 -22.625 C 20.300781 -21.5 21 -19.960938 21 -18.015625 C 21 -16.585938 20.625 -15.398438 19.875 -14.453125 C 19.125 -13.503906 18.125 -12.84375 16.875 -12.46875 Z M 8.078125 -14.484375 L 11.953125 -14.484375 C 12.921875 -14.484375 13.664062 -14.695312 14.1875 -15.125 C 14.707031 -15.550781 14.96875 -16.179688 14.96875 -17.015625 C 14.96875 -17.847656 14.707031 -18.484375 14.1875 -18.921875 C 13.664062 -19.359375 12.921875 -19.578125 11.953125 -19.578125 L 8.078125 -19.578125 Z M 12.4375 -4.78125 C 13.4375 -4.78125 14.207031 -5.003906 14.75 -5.453125 C 15.289062 -5.910156 15.5625 -6.566406 15.5625 -7.421875 C 15.5625 -8.273438 15.273438 -8.941406 14.703125 -9.421875 C 14.140625 -9.910156 13.363281 -10.15625 12.375 -10.15625 L 8.078125 -10.15625 L 8.078125 -4.78125 Z M 12.4375 -4.78125 "/></g></g></g><g fill="#273661" fill-opacity="1"><g transform="translate(214.046726, 271.926822)"><g><path d="M 8.078125 -4.578125 L 15.84375 -4.578125 L 15.84375 0 L 2.15625 0 L 2.15625 -24.328125 L 8.078125 -24.328125 Z M 8.078125 -4.578125 "/></g></g></g><g fill="#273661" fill-opacity="1"><g transform="translate(230.575896, 271.926822)"><g><path d="M 8.078125 -19.578125 L 8.078125 -14.65625 L 16.015625 -14.65625 L 16.015625 -10.078125 L 8.078125 -10.078125 L 8.078125 -4.75 L 17.046875 -4.75 L 17.046875 0 L 2.15625 0 L 2.15625 -24.328125 L 17.046875 -24.328125 L 17.046875 -19.578125 Z M 8.078125 -19.578125 "/></g></g></g><g fill="#252a59" fill-opacity="1"><g transform="translate(148.812189, 304.704179)"><g><path d="M 10.796875 0 L 3.984375 -7.546875 L 3.984375 0 L 1.828125 0 L 1.828125 -16.546875 L 3.984375 -16.546875 L 3.984375 -8.875 L 10.828125 -16.546875 L 13.546875 -16.546875 L 6.046875 -8.265625 L 13.625 0 Z M 10.796875 0 "/></g></g></g><g fill="#252a59" fill-opacity="1"><g transform="translate(167.015079, 304.704179)"><g><path d="M 3.984375 -16.546875 L 3.984375 0 L 1.828125 0 L 1.828125 -16.546875 Z M 3.984375 -16.546875 "/></g></g></g><g fill="#252a59" fill-opacity="1"><g transform="translate(176.841134, 304.704179)"><g><path d="M 6.984375 -16.546875 C 8.785156 -16.546875 10.34375 -16.207031 11.65625 -15.53125 C 12.976562 -14.863281 13.992188 -13.90625 14.703125 -12.65625 C 15.410156 -11.40625 15.765625 -9.929688 15.765625 -8.234375 C 15.765625 -6.546875 15.410156 -5.078125 14.703125 -3.828125 C 13.992188 -2.585938 12.976562 -1.640625 11.65625 -0.984375 C 10.34375 -0.328125 8.785156 0 6.984375 0 L 1.828125 0 L 1.828125 -16.546875 Z M 6.984375 -1.78125 C 9.117188 -1.78125 10.742188 -2.34375 11.859375 -3.46875 C 12.984375 -4.601562 13.546875 -6.191406 13.546875 -8.234375 C 13.546875 -10.296875 12.976562 -11.898438 11.84375 -13.046875 C 10.71875 -14.203125 9.097656 -14.78125 6.984375 -14.78125 L 3.984375 -14.78125 L 3.984375 -1.78125 Z M 6.984375 -1.78125 "/></g></g></g><g fill="#252a59" fill-opacity="1"><g transform="translate(197.606904, 304.704179)"><g><path d="M 7.078125 0.171875 C 5.984375 0.171875 5.003906 -0.0195312 4.140625 -0.40625 C 3.273438 -0.800781 2.597656 -1.34375 2.109375 -2.03125 C 1.617188 -2.71875 1.367188 -3.515625 1.359375 -4.421875 L 3.65625 -4.421875 C 3.738281 -3.640625 4.054688 -2.984375 4.609375 -2.453125 C 5.171875 -1.921875 5.992188 -1.65625 7.078125 -1.65625 C 8.097656 -1.65625 8.90625 -1.910156 9.5 -2.421875 C 10.09375 -2.941406 10.390625 -3.609375 10.390625 -4.421875 C 10.390625 -5.046875 10.210938 -5.554688 9.859375 -5.953125 C 9.515625 -6.347656 9.082031 -6.648438 8.5625 -6.859375 C 8.039062 -7.066406 7.335938 -7.289062 6.453125 -7.53125 C 5.359375 -7.8125 4.484375 -8.09375 3.828125 -8.375 C 3.171875 -8.664062 2.609375 -9.113281 2.140625 -9.71875 C 1.679688 -10.332031 1.453125 -11.148438 1.453125 -12.171875 C 1.453125 -13.078125 1.679688 -13.878906 2.140625 -14.578125 C 2.597656 -15.273438 3.238281 -15.8125 4.0625 -16.1875 C 4.894531 -16.5625 5.851562 -16.75 6.9375 -16.75 C 8.476562 -16.75 9.742188 -16.363281 10.734375 -15.59375 C 11.722656 -14.820312 12.28125 -13.796875 12.40625 -12.515625 L 10.046875 -12.515625 C 9.960938 -13.140625 9.628906 -13.691406 9.046875 -14.171875 C 8.460938 -14.660156 7.6875 -14.90625 6.71875 -14.90625 C 5.8125 -14.90625 5.070312 -14.671875 4.5 -14.203125 C 3.9375 -13.734375 3.65625 -13.082031 3.65625 -12.25 C 3.65625 -11.644531 3.820312 -11.148438 4.15625 -10.765625 C 4.5 -10.390625 4.921875 -10.101562 5.421875 -9.90625 C 5.921875 -9.707031 6.625 -9.484375 7.53125 -9.234375 C 8.613281 -8.929688 9.488281 -8.632812 10.15625 -8.34375 C 10.820312 -8.050781 11.390625 -7.597656 11.859375 -6.984375 C 12.335938 -6.378906 12.578125 -5.554688 12.578125 -4.515625 C 12.578125 -3.703125 12.363281 -2.9375 11.9375 -2.21875 C 11.507812 -1.507812 10.875 -0.929688 10.03125 -0.484375 C 9.195312 -0.046875 8.210938 0.171875 7.078125 0.171875 Z M 7.078125 0.171875 "/></g></g></g><g clip-path="url(#1649f61dce)"><path fill="#ff1616" d="M 179.933594 71.703125 C 226.457031 71.703125 264.144531 109.390625 264.144531 155.917969 C 264.144531 202.445312 226.457031 240.132812 179.933594 240.132812 C 136.566406 240.132812 100.847656 207.34375 96.222656 165.214844 L 148.425781 165.214844 C 152.457031 178.816406 165.050781 188.796875 179.933594 188.796875 C 198.066406 188.796875 212.765625 174.097656 212.765625 155.964844 C 212.765625 137.832031 195.410156 123.128906 179.933594 123.128906 C 169.214844 123.128906 160.835938 126.382812 154.929688 131.96875 L 154.929688 74.453125 C 162.851562 72.484375 171.871094 71.703125 179.933594 71.703125 Z M 179.933594 71.703125 " fill-opacity="1" fill-rule="evenodd"/></g><g clip-path="url(#0ba6c6ec44)"><path fill="#000000" d="M 96.222656 14.828125 L 136.015625 14.828125 C 142.839844 14.828125 148.378906 20.414062 148.378906 27.238281 L 148.378906 160.542969 L 96.222656 160.542969 Z M 96.222656 14.828125 " fill-opacity="1" fill-rule="evenodd"/></g></svg>